<svg xmlns="http://www.w3.org/2000/svg" xmlns:xlink="http://www.w3.org/1999/xlink" preserveAspectRatio="xMidYMid meet" version="1.0" viewBox="84.1 6.0 343.7 500.0" zoomAndPan="magnify" style="fill: rgb(0, 0, 0);" original_string_length="2286"><g id="__id313_s4q0inevf" style="fill: rgb(154, 58, 191);"><path d="M 381.554688 14.285156 L 381.554688 46.066406 L 417.050781 46.066406 Z M 381.554688 14.285156" style="fill: inherit;"/><path d="M 236.355469 389.957031 L 236.355469 486.355469 C 236.355469 497.1875 245.171875 506 256 506 C 266.832031 506 275.644531 497.1875 275.644531 486.355469 L 275.644531 389.957031 C 269.207031 390.863281 262.683594 391.488281 256 391.488281 C 249.316406 391.488281 242.792969 390.863281 236.355469 389.957031" style="fill: inherit;"/><path d="M 368.167969 59.453125 L 368.167969 6 L 84.136719 6 L 84.136719 462.054688 L 222.96875 462.054688 L 222.96875 387.425781 C 161.078125 372.496094 114.90625 316.804688 114.90625 250.394531 C 114.90625 172.597656 178.199219 109.300781 256 109.300781 C 333.800781 109.300781 397.097656 172.597656 397.097656 250.394531 C 397.097656 316.804688 350.921875 372.496094 289.03125 387.425781 L 289.03125 462.054688 L 427.863281 462.054688 L 427.863281 59.453125 L 368.167969 59.453125" style="fill: inherit;"/><path d="M 310.808594 226.871094 L 301.378906 217.375 L 247.574219 270.824219 C 247.046875 271.347656 246.390625 271.386719 246.117188 271.402344 C 245.800781 271.394531 245.195312 271.292969 244.699219 270.746094 L 217.332031 240.339844 L 207.386719 249.292969 L 234.753906 279.699219 C 237.554688 282.8125 241.558594 284.664062 245.746094 284.78125 C 245.886719 284.785156 246.027344 284.789062 246.167969 284.789062 C 250.207031 284.789062 254.136719 283.175781 257.007812 280.320312 L 310.808594 226.871094" style="fill: inherit;"/><path d="M 157.101562 250.394531 C 157.101562 195.859375 201.464844 151.496094 256 151.496094 C 310.535156 151.496094 354.898438 195.859375 354.898438 250.394531 C 354.898438 304.929688 310.535156 349.296875 256 349.296875 C 201.464844 349.296875 157.101562 304.929688 157.101562 250.394531 Z M 383.710938 250.394531 C 383.710938 179.976562 326.421875 122.6875 256 122.6875 C 185.578125 122.6875 128.289062 179.976562 128.289062 250.394531 C 128.289062 320.816406 185.578125 378.105469 256 378.105469 C 326.421875 378.105469 383.710938 320.816406 383.710938 250.394531" style="fill: inherit;"/></g></svg>